# AST/ASF file generated using VICON BodyLanguage
# -----------------------------------------------
:version 1.10
:name VICON
:units
  mass 1.0
  length 0.45
  angle deg
:documentation
   .ast/.asf automatically generated from VICON data using
   VICON BodyBuilder and BodyLanguage model FoxedUp or BRILLIANT.MOD
:root
   order TX TY TZ RX RY RZ
   axis XYZ
   position 0 0 0  
   orientation 0 0 0 
:bonedata
  begin
     id 1 
     name lhipjoint
     direction 0.584852 -0.759097 0.285867 
     length 2.43633 
     axis 0 0 0  XYZ
  end
  begin
     id 2 
     name lfemur
     direction 0.34202 -0.939693 0  
     length 7.14704  
     axis 0 0 20  XYZ
    dof rx ry rz
    limits (-160.0 20.0)
           (-70.0 70.0)
           (-60.0 70.0)
  end
  begin
     id 3 
     name ltibia
     direction 0.342022 -0.939692 0   
     length 7.68483   
     axis 0 0 20   XYZ
    dof rx
    limits (-10.0 170.0)
  end
  begin
     id 4 
     name lfoot
     direction 0.0999605 -0.274639 0.956337   
     length 2.40452   
     axis -90 7.62852e-016 20   XYZ
    dof rx rz
    limits (-45.0 90.0)
           (-70.0 20.0)
  end
  begin
     id 5 
     name ltoes
     direction 1.53468e-011 -4.21881e-011 1   
     length 1.19837   
     axis -90 7.62852e-016 20   XYZ
    dof rx
    limits (-90.0 20.0)
  end
  begin
     id 6 
     name rhipjoint
     direction -0.569886 -0.769002 0.289597   
     length 2.40495  
     axis 0 0 0  XYZ 
  end
  begin
     id 7 
     name rfemur
     direction -0.34202 -0.939693 0   
     length 7.45086   
     axis 0 0 -20   XYZ
    dof rx ry rz
    limits (-160.0 20.0)
           (-70.0 70.0)
           (-70.0 60.0)
  end
  begin
     id 8 
     name rtibia
     direction -0.34202 -0.939693 0   
     length 7.76831   
     axis 0 0 -20   XYZ
    dof rx
    limits (-10.0 170.0)
 end
 begin
     id 9 
     name rfoot
     direction -0.0798572 -0.219406 0.97236   
     length 2.35911  
     axis -90 -7.62852e-016 -20   XYZ
    dof rx rz
    limits (-45.0 90.0)
           (-20.0 70.0)
  end
  begin
     id 10 
     name rtoes
     direction -1.53469e-011 -4.21728e-011 1   
     length 1.18261   
     axis -90 -7.62852e-016 -20   XYZ
    dof rx
    limits (-90.0 20.0)
  end
  begin
     id 11 
     name lowerback
     direction 0.0242088 0.999437 0.0232389   
     length 2.1561   
     axis 0 0 0   XYZ
    dof rx ry rz
    limits (-20.0 45.0)
           (-30.0 30.0)
           (-30.0 30.0)
  end
  begin
     id 12 
     name upperback
     direction -0.0356893 0.999013 -0.0264323   
     length 2.14431   
     axis 0 0 0   XYZ
    dof rx ry rz
    limits (-20.0 45.0)
           (-30.0 30.0)
           (-30.0 30.0)
  end
  begin
     id 13 
     name thorax
     direction -0.0472163 0.998194 -0.0371284   
     length 2.16169   
     axis 0 0 0   XYZ
    dof rx ry rz
    limits (-20.0 45.0)
           (-30.0 30.0)
           (-30.0 30.0)
  end
  begin
     id 14 
     name lowerneck
     direction 0.00863244 0.999921 0.00911972   
     length 1.58651   
     axis 0 0 0   XYZ
    dof rx ry rz
    limits (-20.0 45.0)
           (-30.0 30.0)
           (-30.0 30.0)
  end
  begin
     id 15 
     name upperneck
     direction 0.149523 0.979068 -0.138086   
     length 1.57486   
     axis 0 0 0   XYZ
    dof rx ry rz
    limits (-20.0 45.0)
           (-30.0 30.0)
           (-30.0 30.0)
  end
  begin
     id 16
     name head
     direction 0.0445219 0.997708 -0.0509576  
     length 1.6019  
     axis 0 0 0   XYZ
    dof rx ry rz
    limits (-20.0 45.0)
           (-30.0 30.0)
           (-30.0 30.0)
  end
  begin
     id 17 
     name lclavicle
     direction 0.911271 0.381667 -0.154644  
     length 3.80848  
     axis 0 0 0   XYZ
    dof ry rz
    limits (-20.0 10.0)
           (0.0 20.0)
  end
  begin
     id 18 
     name lhumerus
     direction 1 -4.49003e-011 2.1308e-027   
     length 5.19069   
     axis 180 -30 -90   XYZ
    dof rx ry rz
    limits (-60.0 90.0)
           (-90.0 90.0)
           (-90.0 90.0)
  end
  begin
     id 19
     name lradius
     direction 1 -4.48914e-011 4.01554e-027   
     length 3.30016   
     axis 180 -30 -90   XYZ
    dof rx
    limits (-10.0 170.0)
  end
  begin
     id 20
     name lwrist
     direction 1 -4.49003e-011 1.1934e-026   
     length 1.65008   
     axis -8.46377e-015 90 90   XYZ
    dof ry
    limits (-180.0 0.0)
 end
  begin
     id 21 
     name lhand
     direction 1 -4.49034e-011 2.38659e-026   
     length 0.707698   
     axis -1.52313e-014 90 90   XYZ
    dof rx rz
    limits (-90.0 90.0)
           (-45.0 45.0)
  end
  begin
     id 22 
     name lfingers
     direction 1 -4.48691e-011 4.77775e-026   
     length 0.570564   
     axis -3.04623e-014 90 90   XYZ
    dof rx
    limits (0.0 90.0)
  end
  begin
     id 23
     name lthumb
     direction 0.707107 -6.34832e-011 0.707107   
     length 0.819219   
     axis -90 45 -1.62303e-014   XYZ
    dof rx rz
    limits (-45.0 45.0)
           (-45.0 45.0)
  end
  begin
     id 24 
     name rclavicle
     direction -0.815579 0.573708 -0.0754329   
     length 3.54371  
     axis 0 0 0   XYZ 
    dof ry rz
    limits (-10.0 20.0)
           (-20.0 0.0)
  end
  begin
     id 25 
     name rhumerus
     direction -1 -4.48956e-011 3.05351e-028  
     length 5.23924   
     axis 180 30 90   XYZ
    dof rx ry rz
    limits (-90.0 60.0)
           (-90.0 90.0)
           (-90.0 90.0)
  end
  begin
     id 26 
     name rradius
     direction -1 -4.49013e-011 3.53849e-027   
     length 3.32953   
     axis 180 30 90   XYZ
    dof rx
    limits (-10.0 170.0)
  end
  begin
     id 27 
     name rwrist
     direction -1 -4.48901e-011 1.19374e-026   
     length 1.66477   
     axis -8.46377e-015 -90 -90   XYZ
    dof ry
    limits (-180.0 0.0)
  end
  begin
     id 28
     name rhand
     direction -1 -4.48877e-011 2.38764e-026   
     length 0.607414   
     axis -1.52313e-014 -90 -90   XYZ
    dof rx rz
    limits (-90.0 90.0)
           (-45.0 45.0)
  end
  begin
     id 29
     name rfingers
     direction -1 -4.48882e-011 4.77521e-026   
     length 0.489712   
     axis -3.04623e-014 -90 -90   XYZ
    dof rx
    limits (0.0 90.0)
  end
  begin
     id 30
     name rthumb
     direction -0.707107 -6.34974e-011 0.707107   
     length 0.703132   
     axis -90 -45 1.62303e-014   XYZ
    dof rx rz
    limits (-45.0 45.0)
           (-45.0 45.0)
  end
:hierarchy
  begin
    root lhipjoint rhipjoint lowerback
    lhipjoint lfemur
    lfemur ltibia
    ltibia lfoot
    lfoot ltoes
    rhipjoint rfemur
    rfemur rtibia
    rtibia rfoot
    rfoot rtoes
    lowerback upperback
    upperback thorax
    thorax lowerneck lclavicle rclavicle
    lowerneck upperneck
    upperneck head
    lclavicle lhumerus
    lhumerus lradius
    lradius lwrist
    lwrist lhand lthumb
    lhand lfingers
    rclavicle rhumerus
    rhumerus rradius
    rradius rwrist
    rwrist rhand rthumb
    rhand rfingers
  end

#!OML:ASF E:\VariousWalksJay\Project 1\Capture day 1\Session 1\Actor2.ASF
:FULLY-SPECIFIED
:DEGREES
195
root 9.37289 16.7814 41.1766 175.897 -52.0648 -173.148
lowerback -0.993118 0.0096772 5.28615
upperback 4.09103 -0.247651 -0.324281
thorax 4.78189 0.050956 -3.31587
lowerneck -10.0503 -0.820586 -0.531346
upperneck 7.98112 -2.19253 9.47081
head 4.15546 -0.657909 2.85082
rclavicle 1.16239e-013 -2.26615e-014
rhumerus -43.9299 9.81668 -84.1477
rradius 40.5622
rwrist 3.98489
rhand -9.95405 -0.644047
rfingers 7.12502
rthumb 16.0279 -30.0011
lclavicle 1.16239e-013 -2.26615e-014
lhumerus -33.802 -16.2896 75.3674
lradius 39.7789
lwrist 2.88597
lhand -9.42954 -14.1209
lfingers 7.12502
lthumb 16.5329 15.1948
rfemur -10.629 -4.36134 25.6165
rtibia 33.0032
rfoot -25.0628 -17.6438
rtoes -2.77461
lfemur -10.3221 2.84417 -13.8711
ltibia 29.4791
lfoot -19.6718 1.77392
ltoes -8.32575
196
root 9.36323 16.7832 41.1781 175.983 -52.0295 -173.205
lowerback -1.05249 0.0367615 5.24925
upperback 4.10568 -0.213953 -0.32805
thorax 4.83421 0.0680751 -3.2977
lowerneck -10.1393 -0.669873 -0.421113
upperneck 7.98342 -1.99568 9.37752
head 4.15865 -0.55951 2.81704
rclavicle -1.24638e-013 3.57812e-015
rhumerus -43.8136 9.16753 -83.9314
rradius 40.3171
rwrist 3.88478
rhand -9.3257 -0.912271
rfingers 7.12502
rthumb 16.6329 -30.2196
lclavicle -1.24638e-013 3.57812e-015
lhumerus -33.5055 -15.6938 75.333
lradius 39.391
lwrist 3.18013
lhand -9.4492 -13.8929
lfingers 7.12502
lthumb 16.514 15.4243
rfemur -10.6328 -4.30248 25.5612
rtibia 32.9858
rfoot -25.0698 -17.6485
rtoes -2.7244
lfemur -10.3116 2.82194 -13.9372
ltibia 29.472
lfoot -19.7217 1.82555
ltoes -8.23019
197
root 9.35465 16.7842 41.1806 175.982 -51.9735 -173.164
lowerback -1.06109 0.0655345 5.28773
upperback 4.08774 -0.175276 -0.34543
thorax 4.82429 0.0889392 -3.3354
lowerneck -10.0601 -0.525959 -0.191872
upperneck 7.8388 -1.79191 9.14686
head 4.08664 -0.469485 2.72066
rclavicle 3.26007e-014 1.07344e-014
rhumerus -43.7837 8.55413 -83.8182
rradius 40.1248
rwrist 3.73708
rhand -9.19811 -1.02516
rfingers 7.12502
rthumb 16.7557 -30.3221
lclavicle 3.26007e-014 1.07344e-014
lhumerus -33.3486 -15.2969 75.3159
lradius 39.1457
lwrist 3.82085
lhand -9.5118 -13.4029
lfingers 7.12502
lthumb 16.4537 15.9194
rfemur -10.6428 -4.28826 25.5654
rtibia 32.9643
rfoot -25.0411 -17.6369
rtoes -2.845
lfemur -10.3166 2.97079 -13.9205
ltibia 29.4687
lfoot -19.7248 1.73785
ltoes -8.30601
198
root 9.34553 16.7844 41.1855 175.881 -51.8822 -173.042
lowerback -1.03601 0.0997 5.41838
upperback 4.10534 -0.134339 -0.351046
thorax 4.83372 0.11459 -3.41257
lowerneck -10.0648 -0.380133 -0.0810413
upperneck 7.74388 -1.59137 9.04952
head 4.04697 -0.37463 2.68497
rclavicle -9.36276e-014 -2.38542e-015
rhumerus -43.6761 8.22082 -83.8028
rradius 39.9233
rwrist 3.42062
rhand -9.53225 -1.07371
rfingers 7.12502
rthumb 16.434 -30.3976
lclavicle -9.36276e-014 -2.38542e-015
lhumerus -33.1753 -15.002 75.357
lradius 38.9531
lwrist 4.60027
lhand -9.36604 -13.1904
lfingers 7.12502
lthumb 16.5941 16.1202
rfemur -10.6236 -4.3204 25.6085
rtibia 32.9457
rfoot -24.9714 -17.5657
rtoes -3.03379
lfemur -10.2871 3.03129 -13.8617
ltibia 29.4757
lfoot -19.7682 1.74706
ltoes -8.1363
199
root 9.33842 16.7848 41.1902 175.86 -51.8692 -172.96
lowerback -1.0423 0.123768 5.47988
upperback 4.09575 -0.104555 -0.343079
thorax 4.83079 0.131456 -3.43729
lowerneck -10.0814 -0.260334 0.080827
upperneck 7.71577 -1.43447 8.90625
head 4.03146 -0.299713 2.62428
rclavicle 1.27073e-013 -2.66371e-014
rhumerus -43.6246 7.73569 -83.6911
rradius 39.7593
rwrist 3.31914
rhand -9.75593 -1.12578
rfingers 7.12502
rthumb 16.2187 -30.4674
lclavicle 1.27073e-013 -2.66371e-014
lhumerus -32.9745 -14.6395 75.3982
lradius 38.6454
lwrist 4.88163
lhand -9.47248 -12.9147
lfingers 7.12502
lthumb 16.4916 16.4045
rfemur -10.6504 -4.27364 25.6461
rtibia 32.9233
rfoot -24.966 -17.6055
rtoes -3.00338
lfemur -10.3264 3.16956 -13.8274
ltibia 29.473
lfoot -19.7459 1.67072
ltoes -8.39995
200
root 9.33085 16.785 41.1922 175.896 -51.8491 -172.97
lowerback -1.05159 0.133212 5.48031
upperback 4.09812 -0.0922624 -0.35029
thorax 4.83985 0.138062 -3.44444
lowerneck -10.0324 -0.122334 0.169748
upperneck 7.54469 -1.23077 8.78929
head 3.96027 -0.208081 2.58554
rclavicle 1.49089e-014 -7.15625e-015
rhumerus -43.5756 7.41128 -83.6514
rradius 39.635
rwrist 3.17755
rhand -9.73432 -1.25334
rfingers 7.12502
rthumb 16.2395 -30.5932
lclavicle 1.49089e-014 -7.15625e-015
lhumerus -32.8814 -14.4376 75.5338
lradius 38.518
lwrist 5.41739
lhand -9.65825 -12.3756
lfingers 7.12502
lthumb 16.3127 16.9583
rfemur -10.6576 -4.39952 25.6075
rtibia 32.9034
rfoot -24.9085 -17.5062
rtoes -3.19497
lfemur -10.343 3.29612 -13.8418
ltibia 29.4758
lfoot -19.7528 1.56237
ltoes -8.36384
201
root 9.3245 16.7872 41.1899 175.926 -51.8651 -172.981
lowerback -1.085 0.145529 5.37101
upperback 4.10745 -0.0759045 -0.313267
thorax 4.86925 0.142015 -3.34366
lowerneck -10.0391 -0.0131889 0.303961
upperneck 7.50553 -1.08204 8.63954
head 3.94105 -0.138541 2.5267
rclavicle -1.33732e-013 2.98177e-014
rhumerus -43.5635 7.0884 -83.5775
rradius 39.5785
rwrist 3.0527
rhand -9.93786 -1.32999
rfingers 7.12502
rthumb 16.0435 -30.6858
lclavicle -1.33732e-013 2.98177e-014
lhumerus -32.7744 -14.1962 75.6796
lradius 38.3113
lwrist 5.75074
lhand -9.59993 -12.196
lfingers 7.12502
lthumb 16.3689 17.1333
rfemur -10.6324 -4.25512 25.6095
rtibia 32.8799
rfoot -25.0088 -17.62
rtoes -2.94132
lfemur -10.332 3.43715 -13.8419
ltibia 29.465
lfoot -19.7623 1.42269
ltoes -8.43577
202
root 9.31532 16.7878 41.1942 175.944 -51.8446 -172.962
lowerback -1.08121 0.144099 5.44288
upperback 4.09903 -0.0782628 -0.34332
thorax 4.85874 0.144054 -3.41548
lowerneck -9.93641 0.146528 0.621933
upperneck 7.33783 -0.87052 8.40285
head 3.86149 -0.0443596 2.41365
rclavicle -2.67365e-014 -5.1684e-015
rhumerus -43.5448 6.93813 -83.6673
rradius 39.521
rwrist 2.85498
rhand -10.1474 -1.41111
rfingers 7.12502
rthumb 15.8417 -30.783
lclavicle -2.67365e-014 -5.1684e-015
lhumerus -32.7311 -14.0143 75.7455
lradius 38.1863
lwrist 6.07611
lhand -9.37291 -12.0763
lfingers 7.12502
lthumb 16.5875 17.2348
rfemur -10.6474 -4.27605 25.5898
rtibia 32.8666
rfoot -24.9638 -17.6168
rtoes -3.10337
lfemur -10.3437 3.47325 -13.8612
ltibia 29.45
lfoot -19.7565 1.41553
ltoes -8.44688
203
root 9.30592 16.7873 41.1976 175.859 -51.7762 -172.878
lowerback -1.04146 0.173483 5.55131
upperback 4.1055 -0.040142 -0.371016
thorax 4.84799 0.167419 -3.50327
lowerneck -10.0207 0.253966 0.497505
upperneck 7.34099 -0.718894 8.48465
head 3.87069 0.033429 2.46903
rclavicle 4.6118e-014 -3.57812e-015
rhumerus -43.5323 6.56441 -83.6917
rradius 39.445
rwrist 2.90792
rhand -9.89385 -1.45638
rfingers 7.12502
rthumb 16.0859 -30.8087
lclavicle 4.6118e-014 -3.57812e-015
lhumerus -32.6839 -13.978 75.8513
lradius 38.0828
lwrist 6.54708
lhand -9.18559 -11.9056
lfingers 7.12502
lthumb 16.7678 17.3903
rfemur -10.6075 -4.28322 25.6091
rtibia 32.8422
rfoot -24.9583 -17.5338
rtoes -3.01184
lfemur -10.287 3.48459 -13.8319
ltibia 29.4366
lfoot -19.7894 1.47069
ltoes -8.36308
204
root 9.29347 16.7877 41.2019 175.887 -51.7522 -172.958
lowerback -1.03809 0.188849 5.55435
upperback 4.13094 -0.0203093 -0.392684
thorax 4.87507 0.178788 -3.52662
lowerneck -9.91956 0.367096 0.733939
upperneck 7.20756 -0.562082 8.26451
head 3.80544 0.10087 2.371
rclavicle 1.85367e-014 -1.43125e-014
rhumerus -43.5302 6.42502 -83.7271
rradius 39.4327
rwrist 2.81938
rhand -10.096 -1.42767
rfingers 7.12502
rthumb 15.8912 -30.7956
lclavicle 1.85367e-014 -1.43125e-014
lhumerus -32.6479 -13.9027 76.0053
lradius 37.9521
lwrist 6.71644
lhand -9.16314 -11.749
lfingers 7.12502
lthumb 16.7894 17.5451
rfemur -10.543 -4.37657 25.4955
rtibia 32.8317
rfoot -24.9164 -17.456
rtoes -3.22994
lfemur -10.1981 3.42822 -13.9308
ltibia 29.4234
lfoot -19.8167 1.54636
ltoes -8.43634
205
root 9.286 16.7885 41.2034 175.863 -51.719 -172.914
lowerback -1.0532 0.214579 5.56935
upperback 4.14716 0.0109844 -0.382769
thorax 4.9042 0.195586 -3.52314
lowerneck -9.81762 0.480168 0.950821
upperneck 6.73182 -0.372479 7.87709
head 4.02813 0.150422 2.47211
rclavicle -4.37326e-014 -6.36111e-015
rhumerus -43.5162 6.26245 -83.7557
rradius 39.4546
rwrist 2.77627
rhand -10.3004 -1.46604
rfingers 7.12502
rthumb 15.6943 -30.8496
lclavicle -4.37326e-014 -6.36111e-015
lhumerus -32.636 -13.9929 76.2096
lradius 37.9131
lwrist 6.96886
lhand -8.82426 -11.7589
lfingers 7.12502
lthumb 17.1156 17.5072
rfemur -10.5331 -4.36778 25.5053
rtibia 32.8289
rfoot -24.9201 -17.4547
rtoes -3.25512
lfemur -10.1812 3.50104 -13.915
ltibia 29.4163
lfoot -19.8546 1.50207
ltoes -8.35697
